<svg xmlns="http://www.w3.org/2000/svg" width="100" height="96" fill="none" viewBox="0 0 100 96"><path fill="#5e47ff" d="M45.339 63.743 20 20l12.586 10.1 16.088 27.866zM69.124 37.26 43.911 81.075l2.454-15.95L62.453 37.26zM34.443 30.18l50.552-.073-15.04 5.85H37.779z"/><path fill="#5e47ff" d="M45.339 63.743 20 20l12.586 10.1 16.088 27.866zM69.124 37.26 43.911 81.075l2.454-15.95L62.453 37.26z"/><g filter="url(#a)"><path fill="#5e47ff" d="m34.443 30.18 50.552-.073-15.04 5.85H37.779z"/></g><path fill="#57e1ff" d="m49.583 54.664 9.53-16.507h-19.06z"/><g filter="url(#b)"><path fill="#5e47ff" d="M45.339 63.743 20 20l12.586 10.1 16.088 27.866z"/></g><g filter="url(#c)"><path fill="#5e47ff" d="M69.124 37.26 43.911 81.075l2.454-15.95L62.453 37.26z"/></g><path fill="#5e47ff" d="m34.443 30.18 50.552-.073-15.04 5.85H37.779z"/><defs><filter id="a" width="90.552" height="45.85" x="14.443" y="10.107" color-interpolation-filters="sRGB" filterUnits="userSpaceOnUse"><feFlood flood-opacity="0" result="BackgroundImageFix"/><feBlend in="SourceGraphic" in2="BackgroundImageFix" result="shape"/><feGaussianBlur result="effect1_foregroundBlur_554_593" stdDeviation="10"/></filter><filter id="b" width="68.674" height="83.743" x="0" y="0" color-interpolation-filters="sRGB" filterUnits="userSpaceOnUse"><feFlood flood-opacity="0" result="BackgroundImageFix"/><feBlend in="SourceGraphic" in2="BackgroundImageFix" result="shape"/><feGaussianBlur result="effect1_foregroundBlur_554_593" stdDeviation="10"/></filter><filter id="c" width="65.213" height="83.815" x="23.911" y="17.26" color-interpolation-filters="sRGB" filterUnits="userSpaceOnUse"><feFlood flood-opacity="0" result="BackgroundImageFix"/><feBlend in="SourceGraphic" in2="BackgroundImageFix" result="shape"/><feGaussianBlur result="effect1_foregroundBlur_554_593" stdDeviation="10"/></filter></defs></svg>