<svg aria-hidden="true" style="position: absolute; width: 0; height: 0; overflow: hidden;" version="1.1" xmlns="http://www.w3.org/2000/svg" xmlns:xlink="http://www.w3.org/1999/xlink">
<defs>
<symbol id="icon-burger" viewBox="0 0 48 32">
<path d="M0 1.867c0-1.031 0.836-1.867 1.867-1.867h42.667c1.031 0 1.867 0.836 1.867 1.867s-0.836 1.867-1.867 1.867h-42.667c-1.031 0-1.867-0.836-1.867-1.867z"></path>
<path d="M0 15.2c0-1.031 0.836-1.867 1.867-1.867h42.667c1.031 0 1.867 0.836 1.867 1.867s-0.836 1.867-1.867 1.867h-42.667c-1.031 0-1.867-0.836-1.867-1.867z"></path>
<path d="M0 28.533c0-1.031 0.836-1.867 1.867-1.867h42.667c1.031 0 1.867 0.836 1.867 1.867s-0.836 1.867-1.867 1.867h-42.667c-1.031 0-1.867-0.836-1.867-1.867z"></path>
</symbol>
<symbol id="icon-close" viewBox="0 0 32 32">
<path d="M8.74 8.74c0.364-0.364 0.955-0.364 1.32 0l13.199 13.199c0.364 0.364 0.364 0.955 0 1.32s-0.955 0.364-1.32 0l-13.199-13.199c-0.364-0.365-0.364-0.956 0-1.32z"></path>
<path d="M8.74 23.26c-0.364-0.364-0.364-0.955 0-1.32l13.199-13.199c0.364-0.364 0.955-0.364 1.32 0s0.364 0.955 0 1.32l-13.199 13.199c-0.364 0.364-0.955 0.364-1.32 0z"></path>
</symbol>
<symbol id="icon-text-logo" viewBox="0 0 73 32">
<path fill="#fff" style="fill: var(--color1, #fff)" d="M37.197 15.533h-3.242l-1.692 7.78h3.492c2.512 0 3.258-1.383 3.267-2.475 0.008-0.951-0.532-1.34-1.042-1.507l0.017-0.086c0.715-0.157 1.582-0.74 1.591-1.94 0.009-1.156-0.885-1.772-2.392-1.772zM34.566 21.724l0.343-1.545h1.379c0.527 0 0.839 0.216 0.836 0.665-0.004 0.465-0.358 0.881-1.104 0.881h-1.453zM35.251 18.591l0.321-1.47h1.272c0.527 0 0.818 0.2 0.815 0.627-0.004 0.443-0.337 0.843-1.098 0.843h-1.309z"></path>
<path fill="#fff" style="fill: var(--color1, #fff)" d="M40.6 15.533l-1.692 7.78h5.574l0.37-1.686h-3.551l1.321-6.094h-2.023z"></path>
<path fill="#fff" style="fill: var(--color1, #fff)" d="M48.416 15.533l-3.814 7.618-0.033 0.162h1.922l0.748-1.621h2.273l0.045 1.621h1.842l0.033-0.162-0.503-7.618h-2.512zM47.996 20.060l1.311-2.837h0.085l0.073 2.837h-1.469z"></path>
<path fill="#fff" style="fill: var(--color1, #fff)" d="M55.257 15.533h-2.188l-1.692 7.78h2.693c3.391 0 4.502-2.529 4.52-4.69 0.016-2.005-1.3-3.090-3.334-3.090zM53.728 21.67l0.968-4.495h0.484c0.937 0 1.47 0.519 1.462 1.507-0.012 1.443-0.737 2.988-2.292 2.988h-0.623z"></path>
<path fill="#fff" style="fill: var(--color1, #fff)" d="M59.714 15.533l-1.692 7.78h5.802l0.343-1.588h-3.822l0.337-1.534h3.215l0.343-1.588h-3.21l0.321-1.48h3.747l0.343-1.588h-5.728z"></path>
<path fill="#fff" style="fill: var(--color1, #fff)" d="M40.317 6.528l-0.359 1.664h2.204l-1.332 6.116h2.001l1.332-6.116h2.204l0.359-1.664h-6.409z"></path>
<path fill="#fff" style="fill: var(--color1, #fff)" d="M50.118 6.528h-3.146l-1.692 7.78h1.959l0.663-3.058h0.106l1.577 3.058h1.985l0.033-0.162-1.589-2.885c1.939-0.162 2.656-1.28 2.667-2.637 0.011-1.34-0.978-2.096-2.565-2.096zM48.212 9.823l0.376-1.707h1.251c0.607 0 0.951 0.243 0.947 0.719-0.004 0.497-0.359 0.989-1.243 0.989h-1.331z"></path>
<path fill="#fff" style="fill: var(--color1, #fff)" d="M55.043 6.528l-3.814 7.618-0.033 0.162h1.921l0.748-1.621h2.273l0.045 1.621h1.842l0.033-0.162-0.503-7.618h-2.512zM54.623 11.055l1.311-2.836h0.085l0.073 2.837h-1.469z"></path>
<path fill="#fff" style="fill: var(--color1, #fff)" d="M61.884 6.528h-2.187l-1.692 7.78h2.693c3.391 0 4.502-2.529 4.52-4.69 0.016-2.005-1.3-3.090-3.334-3.090zM60.355 12.665l0.968-4.495h0.484c0.937 0 1.47 0.519 1.462 1.507-0.012 1.443-0.737 2.988-2.291 2.988h-0.623z"></path>
<path fill="#fff" style="fill: var(--color1, #fff)" d="M66.342 6.528l-1.692 7.78h5.802l0.343-1.588h-3.822l0.337-1.534h3.215l0.343-1.588h-3.21l0.321-1.48h3.748l0.343-1.588h-5.727z"></path>
<path fill="#57e1ff" style="fill: var(--color2, #57e1ff)" d="M20.946 18.794l4.765-8.253h-9.53l4.765 8.253z"></path>
<path fill="#5e47ff" style="fill: var(--color3, #5e47ff)" d="M18.823 23.334l-12.669-21.871 6.293 5.050 8.044 13.933-1.668 2.889z"></path>
<path fill="#5e47ff" style="fill: var(--color3, #5e47ff)" d="M30.716 10.092l-12.607 21.908 1.227-7.975 8.044-13.933h3.336z"></path>
<path fill="#5e47ff" style="fill: var(--color3, #5e47ff)" d="M13.376 6.552l25.276-0.036-7.52 2.925h-16.088l-1.668-2.889z"></path>
</symbol>
</defs>
</svg>
