<!-- Generated by IcoMoon.io -->
<svg version="1.1" xmlns="http://www.w3.org/2000/svg" width="48" height="32" viewBox="0 0 48 32">
<path d="M0 1.867c0-1.031 0.836-1.867 1.867-1.867h42.667c1.031 0 1.867 0.836 1.867 1.867s-0.836 1.867-1.867 1.867h-42.667c-1.031 0-1.867-0.836-1.867-1.867z"></path>
<path d="M0 15.2c0-1.031 0.836-1.867 1.867-1.867h42.667c1.031 0 1.867 0.836 1.867 1.867s-0.836 1.867-1.867 1.867h-42.667c-1.031 0-1.867-0.836-1.867-1.867z"></path>
<path d="M0 28.533c0-1.031 0.836-1.867 1.867-1.867h42.667c1.031 0 1.867 0.836 1.867 1.867s-0.836 1.867-1.867 1.867h-42.667c-1.031 0-1.867-0.836-1.867-1.867z"></path>
</svg>
