<!-- Generated by IcoMoon.io -->
<svg version="1.1" xmlns="http://www.w3.org/2000/svg" width="58" height="32" viewBox="0 0 58 32">
<path fill="#030718" d="M0 0h57.6v32h-57.6v-32z"></path>
<path fill="#57e1ff" d="M16.027 19.069l3.050-5.282h-6.099l3.050 5.282z"></path>
<path fill="#5e47ff" d="M14.668 21.974l-8.108-13.998 4.028 3.232 5.148 8.917-1.067 1.849z"></path>
<path fill="#5e47ff" d="M22.28 13.499l-8.068 14.021 0.785-5.104 5.148-8.917h2.135z"></path>
<path fill="#5e47ff" d="M11.182 11.233l16.177-0.023-4.813 1.872h-10.296l-1.067-1.849z"></path>
<path fill="#fff" d="M26.837 16.963h-2.075l-1.083 4.979h2.235c1.608 0 2.085-0.885 2.091-1.584 0.005-0.609-0.341-0.858-0.667-0.965l0.011-0.055c0.457-0.1 1.012-0.474 1.018-1.241 0.006-0.74-0.567-1.134-1.531-1.134zM25.153 20.926l0.219-0.989h0.882c0.337 0 0.537 0.138 0.535 0.425-0.002 0.297-0.229 0.564-0.706 0.564h-0.93zM25.592 18.921l0.205-0.941h0.814c0.337 0 0.524 0.128 0.521 0.401-0.002 0.284-0.216 0.539-0.703 0.539h-0.838z"></path>
<path fill="#fff" d="M29.015 16.963l-1.083 4.979h3.567l0.237-1.079h-2.273l0.846-3.9h-1.294z"></path>
<path fill="#fff" d="M34.017 16.963l-2.441 4.876-0.021 0.104h1.23l0.478-1.037h1.455l0.029 1.037h1.179l0.021-0.104-0.322-4.876h-1.608zM33.748 19.861l0.839-1.815h0.054l0.047 1.815h-0.94z"></path>
<path fill="#fff" d="M38.396 16.963h-1.4l-1.083 4.979h1.724c2.17 0 2.882-1.618 2.893-3.001 0.010-1.283-0.832-1.978-2.134-1.978zM37.417 20.891l0.619-2.877h0.31c0.6 0 0.941 0.332 0.936 0.965-0.008 0.923-0.472 1.912-1.467 1.912h-0.398z"></path>
<path fill="#fff" d="M41.248 16.963l-1.083 4.979h3.713l0.219-1.017h-2.446l0.216-0.982h2.058l0.22-1.017h-2.054l0.205-0.947h2.398l0.22-1.017h-3.666z"></path>
<path fill="#fff" d="M28.834 11.2l-0.23 1.065h1.41l-0.853 3.914h1.281l0.853-3.914h1.41l0.23-1.065h-4.102z"></path>
<path fill="#fff" d="M35.107 11.2h-2.013l-1.083 4.979h1.253l0.425-1.957h0.068l1.010 1.957h1.271l0.021-0.104-1.017-1.847c1.241-0.104 1.7-0.819 1.707-1.687 0.007-0.858-0.626-1.342-1.641-1.342zM33.887 13.309l0.241-1.093h0.801c0.388 0 0.608 0.156 0.606 0.46-0.003 0.318-0.23 0.633-0.796 0.633h-0.852z"></path>
<path fill="#fff" d="M38.259 11.2l-2.441 4.876-0.021 0.104h1.23l0.479-1.037h1.454l0.029 1.037h1.179l0.021-0.104-0.322-4.876h-1.608zM37.99 14.098l0.839-1.815h0.055l0.047 1.815h-0.94z"></path>
<path fill="#fff" d="M42.637 11.2h-1.4l-1.083 4.979h1.724c2.17 0 2.882-1.618 2.892-3.001 0.011-1.283-0.832-1.978-2.133-1.978zM41.658 15.128l0.62-2.877h0.31c0.599 0 0.941 0.332 0.936 0.965-0.007 0.923-0.472 1.912-1.467 1.912h-0.399z"></path>
<path fill="#fff" d="M45.49 11.2l-1.083 4.979h3.713l0.22-1.017h-2.446l0.216-0.982h2.058l0.22-1.017h-2.054l0.205-0.947h2.398l0.219-1.017h-3.665z"></path>
</svg>
